HIERARCHY
ROOT Hips
{
  OFFSET 2.26061 22.2878 23.7974
  CHANNELS 6 Xposition Yposition Zposition Zrotation Xrotation Yrotation
  JOINT LeftUpLeg
  {
    OFFSET 8.64259 1.95398 -2.38835
    CHANNELS 3 Zrotation Xrotation Yrotation
    JOINT LeftLeg
    {
      OFFSET 43.7702 0 0
      CHANNELS 3 Zrotation Xrotation Yrotation
      JOINT LeftFoot
      {
        OFFSET 40.6238 0 0
        CHANNELS 3 Zrotation Xrotation Yrotation
        JOINT LeftToeBase
        {
          OFFSET 12.7242 0 0
          CHANNELS 3 Zrotation Xrotation Yrotation
          End Site
          {
            OFFSET 0 0 0
          }
        }
      }
    }
  }
  JOINT RightUpLeg
  {
    OFFSET -8.2249 1.95398 -2.59336
    CHANNELS 3 Zrotation Xrotation Yrotation
    JOINT RightLeg
    {
      OFFSET 43.5653 0 0
      CHANNELS 3 Zrotation Xrotation Yrotation
      JOINT RightFoot
      {
        OFFSET 40.6238 0 0
        CHANNELS 3 Zrotation Xrotation Yrotation
        JOINT RightToeBase
        {
          OFFSET 12.7242 0 0
          CHANNELS 3 Zrotation Xrotation Yrotation
          End Site
          {
            OFFSET 0 0 0
          }
        }
      }
    }
  }
  JOINT Spine
  {
    OFFSET 0.165834 0.87714 6.61349
    CHANNELS 3 Zrotation Xrotation Yrotation
    JOINT Spine1
    {
      OFFSET 7.38963 1.71661e-005 0
      CHANNELS 3 Zrotation Xrotation Yrotation
      JOINT Spine2
      {
        OFFSET 11.9445 1.14441e-005 0
        CHANNELS 3 Zrotation Xrotation Yrotation
        JOINT Spine3
        {
          OFFSET 14.7254 4.19617e-005 0
          CHANNELS 3 Zrotation Xrotation Yrotation
          JOINT Spine4
          {
            OFFSET 10.9679 0 0
            CHANNELS 3 Zrotation Xrotation Yrotation
            JOINT RightShoulder
            {
              OFFSET 2.46616 -1.6653 3.69651
              CHANNELS 3 Zrotation Xrotation Yrotation
              JOINT RightArm
              {
                OFFSET 13.0012 0 0
                CHANNELS 3 Zrotation Xrotation Yrotation
                JOINT RightForeArm
                {
                  OFFSET 28.7848 1.52588e-005 0
                  CHANNELS 3 Zrotation Xrotation Yrotation
                  JOINT RightHand
                  {
                    OFFSET 26.5688 1.52588e-005 0
                    CHANNELS 3 Zrotation Xrotation Yrotation
                    End Site
                    {
                      OFFSET 0 0 0
                    }
                  }
                }
              }
            }
            JOINT LeftShoulder
            {
              OFFSET 2.38034 -1.29275 -3.7523
              CHANNELS 3 Zrotation Xrotation Yrotation
              JOINT LeftArm
              {
                OFFSET 16.3182 6.10351e-005 0
                CHANNELS 3 Zrotation Xrotation Yrotation
                JOINT LeftForeArm
                {
                  OFFSET 27.0901 0 0
                  CHANNELS 3 Zrotation Xrotation Yrotation
                  JOINT LeftHand
                  {
                    OFFSET 24.5451 1.52588e-005 0
                    CHANNELS 3 Zrotation Xrotation Yrotation
                    End Site
                    {
                      OFFSET 0 0 0
                    }
                  }
                }
              }
            }
            JOINT Neck
            {
              OFFSET 5.0226 -0.0266342 0
              CHANNELS 3 Zrotation Xrotation Yrotation
              JOINT Head
              {
                OFFSET 6.69363 2.86102e-005 0
                CHANNELS 3 Zrotation Xrotation Yrotation
                End Site
                {
                  OFFSET 0 0 0
                }
              }
            }
          }
        }
      }
    }
  }
}
MOTION
Frames:	15
Frame Time:	0.0416667
261.959 89.6904 -255.893 -65.4877 -50.3524 -69.098 -168.026 40.831 85.9546 -63.1661 27.1457 -6.20908 48.2467 -11.5719 11.5936 61.9344 28.1203 6.51798 179.664 71.0613 88.2429 -86.0044 75.6283 21.0235 23.4055 3.67894 8.89152 22.4649 15.2989 -100.838 0.597654 5.81823 -88.7428 15.215 1.80915 2.25583 3.5435 1.90664 2.17406 -18.9801 1.04781 2.695 1.03254 1.0478 2.69499 -160.764 -54.9958 35.9159 -44.514 -35.4389 1.98104 -75.4778 -16.5353 -97.3454 -85.3472 8.15254 -5.15512 -67.5245 -59.7608 111.124 -20.4492 35.314 27.3746 23.7632 -4.71556 -82.483 33.9151 -18.576 -57.1986 46.9639 -5.3959 -33.7019 -49.6908 0.291306 31.7154 
257.945 90.8956 -250.724 -64.3704 -54.3899 -68.011 -171.104 32.5744 86.145 -59.8152 18.9002 -2.48047 49.2559 -7.89506 1.45635 64.2202 28.8708 3.51212 177.581 64.7358 87.262 -89.3066 75.585 17.1447 20.6794 6.49241 13.0491 9.13225 25.5749 -92.0786 -0.245011 6.12814 -88.9273 14.6156 0.0449829 2.14781 2.943 0.13946 2.14375 -19.5794 -0.602514 2.06211 0.433318 -0.602494 2.06211 -164.496 -63.2254 27.4581 -45.0107 -34.8059 1.0604 -97.7692 -17.0311 -128.199 -83.1097 -19.0214 29.389 -77.0791 -63.1181 98.129 -17.5049 31.4436 20.7434 12.0565 -3.41615 -84.6712 36.346 1.02432 -4.01181 39.6127 -2.14091 -20.2098 -36.2606 2.00351 19.1966 
252.984 91.8343 -242.933 -67.4895 -54.9586 -68.5263 -172.414 19.5283 88.9207 -52.0872 13.9683 -0.30738 52.4688 -4.94554 -7.42024 64.569 28.839 2.63492 173.037 55.8004 94.1903 -73.9409 37.6636 2.51592 31.8099 2.2061 2.97043 1.45039 4.20851 -5.84631 -0.576817 6.47928 -89.3306 13.9171 -0.816851 1.45089 2.2456 -0.752211 1.48543 -20.2872 -1.21511 1.13837 -0.274527 -1.21512 1.13837 163.333 -72.9366 -11.3735 -24.7948 -42.2915 16.0334 -68.9731 -36.2879 -115.469 -93.722 -16.9418 19.9742 -86.6945 -60.9334 85.255 -17.3306 27.4094 15.6878 10.0887 -6.18904 -91.5962 36.494 2.05794 1.69811 26.1838 0.0438687 -5.54278 -20.2961 1.53776 2.80251 
247.397 93.1836 -234.468 -68.8697 -56.5653 -68.8234 -173.112 5.49161 92.0989 -37.9049 20.6394 1.23139 49.9018 -5.40132 -8.7631 52.3038 23.17 18.7379 170.491 49.9557 96.308 -59.1219 4.72945 2.23383 56.5988 0.242249 0.381707 41.8486 0.0679537 -4.30252 -0.954862 6.7943 -89.5532 13.2943 -1.67914 1.10436 1.62392 -1.62892 1.17719 -20.9186 -1.9334 0.548529 -0.905969 -1.93341 0.548524 124.127 -70.796 -55.1884 4.45952 -39.6027 41.9665 -12.5456 -24.1195 -74.3455 -68.2554 1.69055 -5.84835 -91.5755 -56.4417 77.8351 -18.302 24.0296 12.2967 12.5606 -8.92152 -101.207 32.8002 1.64022 1.09166 15.208 0.110841 -8.70955 -9.11887 1.99538 5.70102 
240.87 94.165 -225.927 -72.9417 -54.3429 -74.4114 -173.454 -5.2937 90.2168 -26.1565 23.9086 1.17693 39.6696 -10.9098 -11.5525 35.9417 5.66055 35.9884 173.764 46.2679 95.2335 -41.517 -2.7426 1.72663 56.7655 0.660758 0.677863 39.1802 0.333499 -7.01458 -0.896314 7.13702 -89.4117 12.6083 -1.49986 1.3506 0.937412 -1.43898 1.4153 -21.6021 -1.83641 0.83734 -1.58946 -1.83642 0.837332 108.037 -64.6052 -74.2567 17.2541 -34.7848 48.1793 -8.71057 -17.8412 -73.255 -32.6491 -0.141942 -3.78939 -93.1635 -51.5325 74.4211 -20.3842 21.7397 10.7096 12.0404 -11.0117 -107.753 31.1963 0.705716 -1.73045 9.38565 1.40478 -13.3759 -0.902554 4.28732 11.249 
234.197 94.283 -217.806 -70.7259 -53.915 -72.0766 -174.318 -2.75777 91.1982 -33.9488 28.9051 2.32734 35.1244 -14.6213 -9.68079 30.8963 -0.678856 26.5094 173.804 44.5467 97.1055 -31.2897 -3.38026 3.11946 54.1709 1.44941 1.29341 42.4388 0.344867 -6.10181 -1.05764 7.15813 -89.6852 12.5655 -1.95101 0.856071 0.895664 -1.91145 0.941123 -21.6509 -2.11806 0.2299 -1.63825 -2.11806 0.229899 99.2235 -57.7803 -86.1396 25.3873 -29.0408 47.6329 -10.9601 -16.1905 -73.29 -19.4 -0.0204815 -4.6401 -95.2443 -48.4762 70.4861 -22.0751 17.7921 10.4534 13.3778 -11.4179 -108.687 28.704 0.529022 -2.13097 7.87122 3.00415 -10.9866 3.18285 5.55099 9.80265 
228.358 93.4645 -210.007 -73.4531 -53.501 -76.877 -175.697 1.4815 89.8168 -46.9281 22.3812 2.10211 38.0707 -12.5001 -7.58112 29.862 -0.995346 18.4924 172.604 42.8249 96.8539 -36.9925 -1.57976 3.85928 56.6345 0.727645 0.697296 39.4237 0.384693 -6.57264 -1.14397 7.32432 -89.5508 12.2363 -2.0608 1.12835 0.566401 -2.00916 1.21796 -21.981 -2.30461 0.456565 -1.96834 -2.30461 0.456564 95.1179 -53.6345 -92.4503 29.4282 -23.7979 43.7769 -10.2256 -15.0276 -71.8794 -22.5692 0.0402293 -4.84441 -96.9004 -47.3162 67.6322 -23.5707 14.9048 11.5162 13.9981 -9.10301 -104.082 29.891 0.703406 -1.59075 4.84485 4.51612 -6.46935 8.42229 6.18409 6.86677 
222.809 92.4236 -202.26 -80.0861 -51.9962 -82.2022 -173.907 6.45859 90.1505 -60.5756 16.4861 1.31641 41.1542 -10.5526 -5.19657 33.97 3.62269 15.2057 172.658 35.7017 98.4113 -44.104 -0.0938139 3.62779 68.6881 -3.50785 -1.81833 27.7422 0.125073 -2.9975 -0.81725 7.65221 -89.7099 11.5744 -1.49018 0.730441 -0.0959433 -1.45657 0.795326 -22.6375 -1.64078 0.248733 -2.62482 -1.64078 0.248716 94.9864 -53.2716 -92.6984 28.2332 -21.3288 37.2115 -10.5652 -13.7086 -71.9493 -22.9825 -0.696569 -1.3179 -99.1504 -49.2662 64.972 -23.8767 14.4009 12.8414 12.2656 -6.91192 -94.3234 31.8557 1.84629 1.89535 3.27153 4.59879 -1.72397 10.4984 5.30259 4.24952 
217.109 91.0932 -194.76 -83.9627 -52.7877 -83.9779 -174.301 15.1549 92.7567 -72.5047 11.3093 1.95288 46.3226 -6.55201 -3.13394 38.5535 8.35313 16.1945 173.277 28.7586 99.8587 -49.6675 2.92525 3.1645 78.9241 -7.28565 -3.23528 29.6211 0.0917558 -0.869584 -0.73811 7.88261 -90.0041 11.1102 -1.47106 0.134467 -0.559908 -1.46373 0.199096 -23.1016 -1.44347 -0.313958 -3.08892 -1.44346 -0.313964 93.8782 -53.0518 -94.3798 27.1366 -19.0592 28.6939 -10.951 -13.7341 -71.5168 -25.068 -0.172246 -3.75568 -99.5173 -51.4849 65.2337 -24.8327 14.2158 13.4947 7.76713 -1.96459 -83.3086 36.61 1.3554 -0.286297 3.13376 4.49596 2.12386 10.9273 4.2622 1.09735 
212.043 90.3856 -187.362 -81.884 -53.4659 -80.5147 -176.865 28.2288 94.4043 -78.7103 7.89349 2.69725 50.3351 -3.35424 0.223928 41.1393 10.9419 15.2652 174.053 23.6937 101.729 -50.3359 6.03126 2.86995 83.9172 -9.79824 -3.89496 33.8468 0.288074 -1.53881 -0.573394 7.85317 -90.3819 11.1625 -1.31869 -0.630699 -0.508081 -1.34516 -0.57206 -23.0443 -1.0682 -0.99787 -3.03167 -1.0682 -0.997873 92.6542 -52.6727 -96.2658 25.5542 -16.8383 17.5741 -10.4374 -14.1049 -71.1711 -25.3319 -0.468737 -2.47946 -101.184 -54.627 64.0086 -24.4538 13.1473 15.4398 7.58829 0.895084 -72.6739 37.1263 1.46273 -0.02576 6.37392 4.13995 5.28862 8.74141 3.03849 -1.20397 
206.296 90.6699 -180.159 -82.4968 -47.1495 -82.6605 -173.837 36.5203 93.8529 -75.1185 4.74424 1.41543 54.7042 -0.795802 1.17001 42.9487 12.9382 16.6332 177.342 16.9306 100.432 -48.1439 2.54862 -0.314882 84.383 -10.6872 -4.1904 38.9907 0.465611 -1.58578 0.378527 7.80301 -90.0844 11.272 0.713923 -0.241661 -0.398727 0.702598 -0.272854 -22.9362 0.753562 -0.0159131 -2.92357 0.753545 -0.0159228 93.346 -51.1527 -95.4848 27.7066 -16.4953 9.14109 -12.275 -11.7617 -74.9592 -25.4486 -0.489805 -2.40744 -101.554 -54.4027 63.4178 -26.2134 13.767 21.6758 4.61758 0.520062 -68.311 34.4223 1.34166 -0.113968 7.26495 2.87047 2.90525 7.61077 2.34588 0.449508 
199.92 91.8674 -172.553 -82.0947 -45.6665 -84.5875 -173.379 41.2092 92.5187 -63.8289 4.73776 0.543081 57.7229 0.520403 2.91745 43.4377 13.75 18.7977 178.328 9.32891 97.5814 -44.1767 -1.41128 -2.75129 79.5627 -8.91228 -3.91819 43.6934 0.600812 -2.0884 0.722431 7.65597 -89.7338 11.5596 1.56185 0.370246 -0.110485 1.57663 0.301127 -22.6514 1.37836 0.822611 -2.63872 1.37836 0.822597 94.5947 -49.0034 -93.8952 30.2297 -18.3915 3.91021 -16.244 -9.05876 -82.3719 -25.5882 -0.483633 -2.37128 -98.7034 -53.4565 67.0566 -29.7869 14.5584 29.6318 3.51389 -0.694233 -70.9648 31.8809 1.30008 0.210832 5.05208 1.72299 1.73848 9.30846 1.48018 0.529076 
193.269 93.7291 -163.835 -81.3596 -45.5411 -85.5525 -173.401 41.0363 92.0327 -44.1987 6.55742 -0.630664 56.2398 -1.62177 -0.66534 41.5903 11.9646 20.6625 178.122 2.81446 94.5598 -40.5468 -7.68152 -5.05664 66.7391 -3.74752 -2.05771 49.3851 1.04861 0.143121 0.946522 7.50084 -89.4438 11.8646 2.1439 0.87968 0.195176 2.18053 0.784424 -22.3481 1.78044 1.48347 -2.33545 1.7804 1.48344 95.2495 -47.1776 -93.1295 31.0409 -21.2828 1.28892 -19.5107 -5.24355 -90.6102 -24.949 -0.355045 -2.89313 -95.9726 -51.0709 70.2036 -34.0633 13.9263 36.4509 9.73987 1.18629 -74.2239 37.5206 3.03011 4.2146 3.4139 0.341112 0.470391 10.1637 0.268942 0.00832988 
186.398 95.38 -154.493 -81.0746 -44.936 -86.5048 -173.847 36.2933 91.8901 -18.2699 11.2004 -1.31978 44.0033 -9.85063 -5.73357 39.3668 9.47034 20.2815 176.265 -2.74885 91.1021 -36.8782 -13.288 -6.38009 52.9899 1.46847 1.28336 44.5718 0.939678 0.672133 1.23185 7.35114 -89.2025 12.1563 2.82593 1.27837 0.487922 2.87947 1.15268 -22.06 2.31111 2.06879 -2.04732 2.31112 2.06879 95.5721 -46.996 -92.6372 30.3004 -23.7926 1.99385 -24.1103 -0.407172 -97.8434 -25.0908 -0.514066 -2.09498 -95.8568 -48.9233 69.712 -36.1783 10.675 42.6038 3.68806 -1.25154 -76.8757 36.4608 1.64355 0.525134 2.04306 -0.977943 -1.06909 9.84974 -0.79867 0.192715 
179.859 96.4309 -145.128 -80.9344 -43.9224 -86.2548 -174.073 34.5529 92.4302 -5.47069 12.1033 -1.82318 39.2382 -13.4466 -8.83778 36.5557 6.28349 17.0429 174.821 -4.32974 88.042 -41.6372 -7.37704 -6.22631 49.8432 2.26595 2.05518 34.1006 0.256513 -4.33092 1.4792 7.20929 -89.2191 12.4406 3.31051 1.18124 0.773421 3.35926 1.03426 -21.7833 2.8024 2.12208 -1.77068 2.8024 2.12209 95.686 -46.2355 -92.558 29.744 -25.9272 4.2524 -23.8913 2.45301 -100.7 -24.3345 -0.656035 -1.4995 -94.8702 -48.5882 71.0788 -35.4391 7.70126 45.6399 8.2918 -1.02486 -80.7199 34.3491 1.5359 0.505877 0.141592 -1.6445 -0.939536 10.1783 -1.48558 0.231538 
